<?xml version="1.0" encoding="iso-8859-1"?>
<!-- Generator: Adobe Illustrator 16.0.0, SVG Export Plug-In . SVG Version: 6.00 Build 0)  -->
<!DOCTYPE svg PUBLIC "-//W3C//DTD SVG 1.1//EN" "http://www.w3.org/Graphics/SVG/1.1/DTD/svg11.dtd">
<svg version="1.1" id="Capa_1" xmlns="http://www.w3.org/2000/svg" xmlns:xlink="http://www.w3.org/1999/xlink" x="0px" y="0px"
	 width="63.067px" height="63.067px" viewBox="0 0 63.067 63.067" style="enable-background:new 0 0 63.067 63.067;"
	 xml:space="preserve">
<g>
	<g>
		<g>
			<path d="M38.455,63.067c-0.302,0-0.598-0.113-0.826-0.34L6.438,31.534L37.629,0.342c0.456-0.455,1.197-0.455,1.651,0
				c0.456,0.453,0.456,1.196,0,1.651L9.741,31.534l29.54,29.54c0.454,0.451,0.454,1.195,0,1.651
				C39.053,62.954,38.751,63.067,38.455,63.067z"/>
		</g>
		<g>
			<path d="M43.003,45.164c-7.519,0-13.632-6.113-13.632-13.63c0-7.516,6.114-13.629,13.632-13.629
				c7.514,0,13.627,6.113,13.627,13.629C56.63,39.051,50.517,45.164,43.003,45.164z M43.003,20.241
				c-6.227,0-11.297,5.066-11.297,11.293c0,6.228,5.07,11.294,11.297,11.294c6.228,0,11.292-5.066,11.292-11.294
				C54.295,25.307,49.23,20.241,43.003,20.241z"/>
		</g>
	</g>
</g>
<g>
</g>
<g>
</g>
<g>
</g>
<g>
</g>
<g>
</g>
<g>
</g>
<g>
</g>
<g>
</g>
<g>
</g>
<g>
</g>
<g>
</g>
<g>
</g>
<g>
</g>
<g>
</g>
<g>
</g>
</svg>
