<?xml version="1.0" encoding="iso-8859-1"?>
<!-- Generator: Adobe Illustrator 16.0.0, SVG Export Plug-In . SVG Version: 6.00 Build 0)  -->
<!DOCTYPE svg PUBLIC "-//W3C//DTD SVG 1.1//EN" "http://www.w3.org/Graphics/SVG/1.1/DTD/svg11.dtd">
<svg version="1.1" id="Capa_1" xmlns="http://www.w3.org/2000/svg" xmlns:xlink="http://www.w3.org/1999/xlink" x="0px" y="0px"
	 width="63.063px" height="63.062px" viewBox="0 0 63.063 63.062" style="enable-background:new 0 0 63.063 63.062;"
	 xml:space="preserve">
<g>
	<g>
		<g>
			<path d="M24.61,63.062c-0.297,0-0.598-0.114-0.827-0.34c-0.455-0.454-0.455-1.198,0-1.651l29.542-29.542L23.789,1.991
				c-0.456-0.453-0.456-1.196,0-1.651c0.453-0.453,1.195-0.453,1.651,0l31.188,31.189L25.437,62.723
				C25.208,62.948,24.912,63.062,24.61,63.062z"/>
		</g>
		<g>
			<path d="M20.062,45.158c-7.514,0-13.627-6.113-13.627-13.629S12.548,17.9,20.062,17.9c7.52,0,13.631,6.113,13.631,13.629
				S27.582,45.158,20.062,45.158z M20.062,20.236c-6.228,0-11.292,5.066-11.292,11.293s5.064,11.293,11.292,11.293
				c6.227,0,11.295-5.066,11.295-11.293S26.29,20.236,20.062,20.236z"/>
		</g>
	</g>
</g>
<g>
</g>
<g>
</g>
<g>
</g>
<g>
</g>
<g>
</g>
<g>
</g>
<g>
</g>
<g>
</g>
<g>
</g>
<g>
</g>
<g>
</g>
<g>
</g>
<g>
</g>
<g>
</g>
<g>
</g>
</svg>
